# xmcd
#
# Track frame offsets:
#	150
#	15732
#	32595
#
# Disc length: 672 seconds
#
# Revision: 2
# Processed by: cddbd v1.5.2PL0 Copyright (c) Steve Scherf et al.
# Submitted via: EasyCDDAExtractor 10.0.2.1
#
DISCID=18029e03
DTITLE=Rebecca Linda Smith - Renewed
DYEAR=2004
DGENRE=Gospel
TTITLE0=Jesus Grace
TTITLE1=Redeemed
TTITLE2=Jesus, King Of Glory
EXTD=
EXTT0=
EXTT1=
EXTT2=
PLAYORDER=
